<?xml version="1.0" encoding="utf-8"?>
<svg viewBox="0 -75.057 655 488.736" xmlns="http://www.w3.org/2000/svg">
  <path d="M689.063,372.583a122.04116,122.04116,0,0,1,10.10051-38.51722q2.27961-5.09249,5.01812-9.96076a.7438.7438,0,0,0-1.28354-.75026,123.7286,123.7286,0,0,0-13.7678,37.98231q-1.03367,5.58355-1.55378,11.24593c-.08811.95214,1.39893.94613,1.48649,0Z" transform="matrix(1, 0, 0, 1, -272.5, -243.160233)" fill="#e6e6e6"/>
  <circle cx="435.2819" cy="73.9144" r="9.4144" fill="#e6e6e6"/>
  <path d="M690.026,372.83307a79.17357,79.17357,0,0,1,6.55267-24.98791q1.47888-3.30374,3.25549-6.462a.48254.48254,0,0,0-.83269-.48673,80.26825,80.26825,0,0,0-8.93182,24.6409q-.67059,3.6223-1.008,7.29575c-.05716.6177.90755.6138.96436,0Z" transform="matrix(1, 0, 0, 1, -272.5, -243.160233)" fill="#e6e6e6"/>
  <circle cx="429.66984" cy="93.66195" r="6.10756" fill="#e6e6e6"/>
  <path d="M688.80883,372.25653a79.17368,79.17368,0,0,1-10.2024-23.73277q-.86592-3.51453-1.40764-7.09749a.48253.48253,0,0,0-.95592.12838,80.26823,80.26823,0,0,0,8.11306,24.92247q1.69918,3.26856,3.69253,6.37254c.33485.5222,1.09311-.07422.76037-.59313Z" transform="matrix(1, 0, 0, 1, -272.5, -243.160233)" fill="#e6e6e6"/>
  <circle cx="403.73518" cy="93.23322" r="6.10756" fill="#e6e6e6"/>
  <path d="M670.05906,377.66024v-12a4.50508,4.50508,0,0,1,4.5-4.5h28a4.50508,4.50508,0,0,1,4.5,4.5v12a4.50508,4.50508,0,0,1-4.5,4.5h-28A4.50508,4.50508,0,0,1,670.05906,377.66024Z" transform="matrix(1, 0, 0, 1, -272.5, -243.160233)" fill="#f2f2f2" style="isolation:isolate"/>
  <path d="M701.55906,301.16024h-12a4.50507,4.50507,0,0,1-4.5-4.5v-49a4.50508,4.50508,0,0,1,4.5-4.5h12a4.50508,4.50508,0,0,1,4.5,4.5v49A4.50508,4.50508,0,0,1,701.55906,301.16024Z" transform="matrix(1, 0, 0, 1, -272.5, -243.160233)" fill="#f2f2f2" style="isolation:isolate"/>
  <rect x="413.05906" y="9.5" width="20" height="4" fill="#ccc"/>
  <rect x="413.05906" y="40.5" width="20" height="4" fill="#ccc"/>
  <path d="M731.55906,301.16024h-12a4.50507,4.50507,0,0,1-4.5-4.5v-49a4.50508,4.50508,0,0,1,4.5-4.5h12a4.50508,4.50508,0,0,1,4.5,4.5v49A4.50508,4.50508,0,0,1,731.55906,301.16024Z" transform="matrix(1, 0, 0, 1, -272.5, -243.160233)" fill="#f2f2f2" style="isolation:isolate"/>
  <rect x="443.05906" y="9.5" width="20" height="4" fill="#ccc"/>
  <rect x="443.05906" y="40.5" width="20" height="4" fill="#ccc"/>
  <path d="M761.55906,301.16024h-12a4.50507,4.50507,0,0,1-4.5-4.5v-49a4.50508,4.50508,0,0,1,4.5-4.5h12a4.50508,4.50508,0,0,1,4.5,4.5v49A4.50508,4.50508,0,0,1,761.55906,301.16024Z" transform="matrix(1, 0, 0, 1, -272.5, -243.160233)" fill="#f2f2f2" style="isolation:isolate"/>
  <rect x="473.05906" y="9.5" width="20" height="4" fill="#ccc"/>
  <rect x="473.05906" y="40.5" width="20" height="4" fill="#ccc"/>
  <path d="M777.55906,382.16024h-12a4.50507,4.50507,0,0,1-4.5-4.5v-49a4.50508,4.50508,0,0,1,4.5-4.5h12a4.50508,4.50508,0,0,1,4.5,4.5v49A4.50508,4.50508,0,0,1,777.55906,382.16024Z" transform="matrix(1, 0, 0, 1, -272.5, -243.160233)" fill="#f2f2f2" style="isolation:isolate"/>
  <rect x="489.05906" y="90.5" width="20" height="4" fill="#ccc"/>
  <rect x="489.05906" y="121.5" width="20" height="4" fill="#ccc"/>
  <path d="M807.55906,382.16024h-12a4.50507,4.50507,0,0,1-4.5-4.5v-49a4.50508,4.50508,0,0,1,4.5-4.5h12a4.50508,4.50508,0,0,1,4.5,4.5v49A4.50508,4.50508,0,0,1,807.55906,382.16024Z" transform="matrix(1, 0, 0, 1, -272.5, -243.160233)" fill="#f2f2f2" style="isolation:isolate"/>
  <rect x="519.05906" y="90.5" width="20" height="4" fill="#ccc"/>
  <rect x="519.05906" y="121.5" width="20" height="4" fill="#ccc"/>
  <path d="M837.55906,382.16024h-12a4.50507,4.50507,0,0,1-4.5-4.5v-49a4.50508,4.50508,0,0,1,4.5-4.5h12a4.50508,4.50508,0,0,1,4.5,4.5v49A4.50508,4.50508,0,0,1,837.55906,382.16024Z" transform="matrix(1, 0, 0, 1, -272.5, -243.160233)" fill="#f2f2f2" style="isolation:isolate"/>
  <rect x="549.05906" y="90.5" width="20" height="4" fill="#ccc"/>
  <rect x="549.05906" y="121.5" width="20" height="4" fill="#ccc"/>
  <path d="M698.55906,463.16024h-12a4.50507,4.50507,0,0,1-4.5-4.5v-49a4.50508,4.50508,0,0,1,4.5-4.5h12a4.50508,4.50508,0,0,1,4.5,4.5v49A4.50508,4.50508,0,0,1,698.55906,463.16024Z" transform="matrix(1, 0, 0, 1, -272.5, -243.160233)" fill="#f2f2f2" style="isolation:isolate"/>
  <rect x="410.05906" y="171.5" width="20" height="4" fill="#ccc"/>
  <rect x="410.05906" y="202.5" width="20" height="4" fill="#ccc"/>
  <path d="M728.55906,463.16024h-12a4.50507,4.50507,0,0,1-4.5-4.5v-49a4.50508,4.50508,0,0,1,4.5-4.5h12a4.50508,4.50508,0,0,1,4.5,4.5v49A4.50508,4.50508,0,0,1,728.55906,463.16024Z" transform="matrix(1, 0, 0, 1, -272.5, -243.160233)" fill="#f2f2f2" style="isolation:isolate"/>
  <rect x="440.05906" y="171.5" width="20" height="4" fill="#ccc"/>
  <rect x="440.05906" y="202.5" width="20" height="4" fill="#ccc"/>
  <path d="M758.55906,463.16024h-12a4.50507,4.50507,0,0,1-4.5-4.5v-49a4.50508,4.50508,0,0,1,4.5-4.5h12a4.50508,4.50508,0,0,1,4.5,4.5v49A4.50508,4.50508,0,0,1,758.55906,463.16024Z" transform="matrix(1, 0, 0, 1, -272.5, -243.160233)" fill="#f2f2f2" style="isolation:isolate"/>
  <rect x="470.05906" y="171.5" width="20" height="4" fill="#ccc"/>
  <rect x="470.05906" y="202.5" width="20" height="4" fill="#ccc"/>
  <path d="M791.55906,301.16024h-12a4.50507,4.50507,0,0,1-4.5-4.5v-49a4.50508,4.50508,0,0,1,4.5-4.5h12a4.50508,4.50508,0,0,1,4.5,4.5v49A4.50508,4.50508,0,0,1,791.55906,301.16024Z" transform="matrix(1, 0, 0, 1, -272.5, -243.160233)" fill="#f2f2f2" style="isolation:isolate"/>
  <rect x="503.05906" y="9.5" width="20" height="4" fill="#ccc"/>
  <rect x="503.05906" y="40.5" width="20" height="4" fill="#ccc"/>
  <path d="M821.55906,301.16024h-12a4.50507,4.50507,0,0,1-4.5-4.5v-49a4.50508,4.50508,0,0,1,4.5-4.5h12a4.50508,4.50508,0,0,1,4.5,4.5v49A4.50508,4.50508,0,0,1,821.55906,301.16024Z" transform="matrix(1, 0, 0, 1, -272.5, -243.160233)" fill="#f2f2f2" style="isolation:isolate"/>
  <rect x="533.05906" y="9.5" width="20" height="4" fill="#ccc"/>
  <rect x="533.05906" y="40.5" width="20" height="4" fill="#ccc"/>
  <path d="M851.55906,301.16024h-12a4.50507,4.50507,0,0,1-4.5-4.5v-49a4.50508,4.50508,0,0,1,4.5-4.5h12a4.50508,4.50508,0,0,1,4.5,4.5v49A4.50508,4.50508,0,0,1,851.55906,301.16024Z" transform="matrix(1, 0, 0, 1, -272.5, -243.160233)" fill="#f2f2f2" style="isolation:isolate"/>
  <rect x="563.05906" y="9.5" width="20" height="4" fill="#ccc"/>
  <rect x="563.05906" y="40.5" width="20" height="4" fill="#ccc"/>
  <path d="M881.55906,301.16024h-12a4.50507,4.50507,0,0,1-4.5-4.5v-49a4.50508,4.50508,0,0,1,4.5-4.5h12a4.50508,4.50508,0,0,1,4.5,4.5v49A4.50508,4.50508,0,0,1,881.55906,301.16024Z" transform="matrix(1, 0, 0, 1, -272.5, -243.160233)" fill="#f2f2f2" style="isolation:isolate"/>
  <rect x="593.05906" y="9.5" width="20" height="4" fill="#ccc"/>
  <rect x="593.05906" y="40.5" width="20" height="4" fill="#ccc"/>
  <path d="M926.5,302.66024h-285a1,1,0,0,1,0-2h285a1,1,0,0,1,0,2Z" transform="matrix(1, 0, 0, 1, -272.5, -243.160233)" fill="#ccc"/>
  <path d="M926.5,383.66024h-285a1,1,0,0,1,0-2h285a1,1,0,0,1,0,2Z" transform="matrix(1, 0, 0, 1, -272.5, -243.160233)" fill="#ccc"/>
  <path d="M926.5,464.66024h-285a1,1,0,0,1,0-2h285a1,1,0,0,1,0,2Z" transform="matrix(1, 0, 0, 1, -272.5, -243.160233)" fill="#ccc"/>
  <path d="M854.063,453.583a122.04116,122.04116,0,0,1,10.10051-38.51722q2.27961-5.09249,5.01812-9.96076a.7438.7438,0,0,0-1.28354-.75026,123.7286,123.7286,0,0,0-13.7678,37.98231q-1.03367,5.58355-1.55378,11.24593c-.08811.95214,1.39893.94613,1.48649,0Z" transform="matrix(1, 0, 0, 1, -272.5, -243.160233)" fill="#e6e6e6"/>
  <circle cx="600.2819" cy="154.9144" r="9.4144" fill="#e6e6e6"/>
  <path d="M855.026,453.83307a79.17357,79.17357,0,0,1,6.55267-24.98791q1.47888-3.30374,3.25549-6.462a.48254.48254,0,0,0-.83269-.48673,80.26825,80.26825,0,0,0-8.93182,24.6409q-.67059,3.6223-1.008,7.29575c-.05716.6177.90755.6138.96436,0Z" transform="matrix(1, 0, 0, 1, -272.5, -243.160233)" fill="#e6e6e6"/>
  <circle cx="594.66984" cy="174.66195" r="6.10756" fill="#e6e6e6"/>
  <path d="M853.80883,453.25653a79.17368,79.17368,0,0,1-10.2024-23.73277q-.86592-3.51453-1.40764-7.09749a.48253.48253,0,0,0-.95592.12838,80.26823,80.26823,0,0,0,8.11306,24.92247q1.69918,3.26856,3.69253,6.37254c.33485.5222,1.09311-.07422.76037-.59313Z" transform="matrix(1, 0, 0, 1, -272.5, -243.160233)" fill="#e6e6e6"/>
  <circle cx="568.73518" cy="174.23322" r="6.10756" fill="#e6e6e6"/>
  <path d="M835.05906,458.66024v-12a4.50508,4.50508,0,0,1,4.5-4.5h28a4.50508,4.50508,0,0,1,4.5,4.5v12a4.50508,4.50508,0,0,1-4.5,4.5h-28A4.50508,4.50508,0,0,1,835.05906,458.66024Z" transform="matrix(1, 0, 0, 1, -272.5, -243.160233)" fill="#f2f2f2" style="isolation:isolate"/>
</svg>