<?xml version="1.0" encoding="utf-8"?>
<svg viewBox="0 0 828.074 500" xmlns="http://www.w3.org/2000/svg">
  <path d="M 215.613 486.952 L 209.569 477.299 L 208.361 482.814 C 208.149 483.781 207.937 484.762 207.742 485.737 C 206.024 484.279 204.198 482.932 202.41 481.638 C 196.922 477.68 191.436 473.717 185.953 469.749 L 187.67 479.643 C 188.728 485.737 189.835 491.954 192.453 497.524 C 192.742 498.155 193.056 498.778 193.394 499.386 L 218.906 499.386 C 219.111 498.822 219.254 498.237 219.33 497.641 C 219.336 497.603 219.339 497.563 219.338 497.524 C 219.738 493.745 217.637 490.185 215.613 486.952 Z" fill="#f0f0f0" style=""/>
  <path d="M 789.482 470.81 L 775.497 448.336 L 772.704 461.179 C 772.214 463.428 771.724 465.713 771.271 467.981 C 767.298 464.589 763.072 461.451 758.937 458.44 C 746.24 449.225 733.548 439.998 720.863 430.76 L 724.835 453.796 C 727.284 467.981 729.842 482.455 735.9 495.425 C 736.572 496.894 737.297 498.345 738.077 499.76 L 797.101 499.76 C 797.576 498.446 797.904 497.083 798.08 495.697 C 798.095 495.607 798.101 495.516 798.098 495.425 C 799.024 486.627 794.162 478.338 789.482 470.81 Z" fill="#f0f0f0"/>
  <path d="M 827.941 501.369 L 1.191 501.676 C 0.274 501.674 -0.296 500.68 0.165 499.887 C 0.377 499.522 0.768 499.296 1.191 499.295 L 827.941 498.988 C 828.857 498.99 829.427 499.984 828.967 500.777 C 828.754 501.142 828.364 501.368 827.941 501.369 Z" fill="#cacaca"/>
  <path d="M 259.398 151.297 L 259.398 438.321 C 259.404 445.937 265.577 452.11 273.193 452.116 L 698.533 452.116 C 706.149 452.11 712.321 445.938 712.327 438.321 L 712.327 151.297 C 712.309 143.689 706.141 137.528 698.533 137.518 L 273.193 137.518 C 265.584 137.528 259.416 143.689 259.398 151.297 Z" fill="#3f3d56"/>
  <path d="M 269.376 154.869 L 269.376 434.781 C 269.383 438.85 272.68 442.146 276.749 442.153 L 694.992 442.153 C 699.061 442.146 702.358 438.85 702.365 434.781 L 702.365 154.869 C 702.364 150.795 699.066 147.49 694.992 147.481 L 276.749 147.481 C 272.675 147.49 269.377 150.795 269.376 154.869 Z" fill="#fff"/>
  <path d="M 250.502 494.299 C 252.081 496.278 254.479 497.425 257.011 497.413 L 712.45 497.413 C 717.766 497.406 721.732 492.516 720.642 487.313 L 713.572 453.732 C 712.977 450.949 711.013 448.658 708.354 447.644 C 707.407 447.272 706.398 447.082 705.38 447.083 L 264.053 447.083 C 263.035 447.082 262.026 447.272 261.079 447.644 C 258.42 448.658 256.456 450.949 255.861 453.732 L 248.791 487.313 C 248.282 489.78 248.91 492.346 250.502 494.299 Z" fill="#2f2e41"/>
  <rect x="-702.146" y="-461.547" width="14.027" height="8.416" rx="0.488" transform="matrix(-1, 0, 0, -1, 0, 0)" fill="#3f3d56"/>
  <rect x="-674.091" y="-461.547" width="14.027" height="8.416" rx="0.488" transform="matrix(-1, 0, 0, -1, 0, 0)" fill="#3f3d56"/>
  <rect x="-646.036" y="-461.547" width="14.027" height="8.416" rx="0.488" transform="matrix(-1, 0, 0, -1, 0, 0)" fill="#3f3d56"/>
  <rect x="-617.982" y="-461.547" width="14.027" height="8.416" rx="0.488" transform="matrix(-1, 0, 0, -1, 0, 0)" fill="#3f3d56"/>
  <rect x="-589.927" y="-461.547" width="14.027" height="8.416" rx="0.488" transform="matrix(-1, 0, 0, -1, 0, 0)" fill="#3f3d56"/>
  <rect x="-561.872" y="-461.547" width="14.027" height="8.416" rx="0.488" transform="matrix(-1, 0, 0, -1, 0, 0)" fill="#3f3d56"/>
  <rect x="-533.818" y="-461.547" width="14.027" height="8.416" rx="0.488" transform="matrix(-1, 0, 0, -1, 0, 0)" fill="#3f3d56"/>
  <rect x="-505.763" y="-461.547" width="14.027" height="8.416" rx="0.488" transform="matrix(-1, 0, 0, -1, 0, 0)" fill="#3f3d56"/>
  <rect x="-477.708" y="-461.547" width="14.027" height="8.416" rx="0.488" transform="matrix(-1, 0, 0, -1, 0, 0)" fill="#3f3d56"/>
  <rect x="-449.654" y="-461.547" width="14.027" height="8.416" rx="0.488" transform="matrix(-1, 0, 0, -1, 0, 0)" fill="#3f3d56"/>
  <rect x="-421.599" y="-461.547" width="14.027" height="8.416" rx="0.488" transform="matrix(-1, 0, 0, -1, 0, 0)" fill="#3f3d56"/>
  <rect x="-393.545" y="-461.547" width="14.027" height="8.416" rx="0.488" transform="matrix(-1, 0, 0, -1, 0, 0)" fill="#3f3d56"/>
  <rect x="-365.49" y="-461.547" width="14.027" height="8.416" rx="0.488" transform="matrix(-1, 0, 0, -1, 0, 0)" fill="#3f3d56"/>
  <rect x="-337.435" y="-461.547" width="14.027" height="8.416" rx="0.488" transform="matrix(-1, 0, 0, -1, 0, 0)" fill="#3f3d56"/>
  <rect x="-309.381" y="-461.547" width="14.027" height="8.416" rx="0.488" transform="matrix(-1, 0, 0, -1, 0, 0)" fill="#3f3d56"/>
  <rect x="-281.326" y="-461.547" width="14.027" height="8.416" rx="0.488" transform="matrix(-1, 0, 0, -1, 0, 0)" fill="#3f3d56"/>
  <rect x="-702.477" y="-475.574" width="14.027" height="8.416" rx="0.488" transform="matrix(-1, 0, 0, -1, 0, 0)" fill="#3f3d56"/>
  <rect x="-674.422" y="-475.574" width="14.027" height="8.416" rx="0.488" transform="matrix(-1, 0, 0, -1, 0, 0)" fill="#3f3d56"/>
  <rect x="-646.368" y="-475.574" width="14.027" height="8.416" rx="0.488" transform="matrix(-1, 0, 0, -1, 0, 0)" fill="#3f3d56"/>
  <rect x="-618.313" y="-475.574" width="14.027" height="8.416" rx="0.488" transform="matrix(-1, 0, 0, -1, 0, 0)" fill="#3f3d56"/>
  <rect x="-590.259" y="-475.574" width="14.027" height="8.416" rx="0.488" transform="matrix(-1, 0, 0, -1, 0, 0)" fill="#3f3d56"/>
  <rect x="-562.204" y="-475.574" width="14.027" height="8.416" rx="0.488" transform="matrix(-1, 0, 0, -1, 0, 0)" fill="#3f3d56"/>
  <rect x="-534.149" y="-475.574" width="14.027" height="8.416" rx="0.488" transform="matrix(-1, 0, 0, -1, 0, 0)" fill="#3f3d56"/>
  <rect x="-506.095" y="-475.574" width="14.027" height="8.416" rx="0.488" transform="matrix(-1, 0, 0, -1, 0, 0)" fill="#3f3d56"/>
  <rect x="-478.04" y="-475.574" width="14.027" height="8.416" rx="0.488" transform="matrix(-1, 0, 0, -1, 0, 0)" fill="#3f3d56"/>
  <rect x="-449.985" y="-475.574" width="14.027" height="8.416" rx="0.488" transform="matrix(-1, 0, 0, -1, 0, 0)" fill="#3f3d56"/>
  <rect x="-421.931" y="-475.574" width="14.027" height="8.416" rx="0.488" transform="matrix(-1, 0, 0, -1, 0, 0)" fill="#3f3d56"/>
  <rect x="-393.876" y="-475.574" width="14.027" height="8.416" rx="0.488" transform="matrix(-1, 0, 0, -1, 0, 0)" fill="#3f3d56"/>
  <rect x="-365.821" y="-475.574" width="14.027" height="8.416" rx="0.488" transform="matrix(-1, 0, 0, -1, 0, 0)" fill="#3f3d56"/>
  <rect x="-337.767" y="-475.574" width="14.027" height="8.416" rx="0.488" transform="matrix(-1, 0, 0, -1, 0, 0)" fill="#3f3d56"/>
  <rect x="-309.712" y="-475.574" width="14.027" height="8.416" rx="0.488" transform="matrix(-1, 0, 0, -1, 0, 0)" fill="#3f3d56"/>
  <rect x="-281.657" y="-475.574" width="14.027" height="8.416" rx="0.488" transform="matrix(-1, 0, 0, -1, 0, 0)" fill="#3f3d56"/>
  <rect x="-536.815" y="-492.407" width="112.219" height="8.416" rx="0.488" transform="matrix(-1, 0, 0, -1, 0, 0)" fill="#3f3d56"/>
  <path d="M 472.311 276.99 L 472.326 276.987 C 472.43 276.893 472.526 276.791 472.613 276.681 Z" fill="#28273b"/>
  <path d="M 512.281 353.541 L 512.286 353.55 L 512.374 353.381 Z" fill="#28273b"/>
  <path d="M 679.532 198.154 L 292.209 198.154 C 291.427 198.137 290.957 197.28 291.363 196.612 C 291.543 196.315 291.862 196.131 292.209 196.124 L 679.532 196.124 C 680.314 196.141 680.784 196.998 680.378 197.666 C 680.198 197.963 679.879 198.147 679.532 198.154 Z" fill="#cacaca"/>
  <ellipse cx="314.564" cy="172.771" rx="10.925" ry="11.169" fill="#3f3d56"/>
  <ellipse cx="352.306" cy="172.771" rx="10.925" ry="11.169" fill="#3f3d56"/>
  <ellipse cx="390.048" cy="172.771" rx="10.925" ry="11.169" fill="#3f3d56"/>
  <path d="M 656.915 164.37 L 630.105 164.37 C 628.542 164.401 627.599 166.112 628.407 167.45 C 628.768 168.046 629.409 168.416 630.105 168.43 L 656.915 168.43 C 658.478 168.399 659.421 166.688 658.613 165.35 C 658.252 164.754 657.612 164.384 656.915 164.37 Z" fill="#3f3d56"/>
  <path d="M 656.915 171.99 L 630.105 171.99 C 628.542 172.021 627.599 173.732 628.407 175.07 C 628.768 175.666 629.409 176.036 630.105 176.05 L 656.915 176.05 C 658.478 176.019 659.421 174.308 658.613 172.97 C 658.252 172.374 657.612 172.004 656.915 171.99 Z" fill="#3f3d56"/>
  <path d="M 656.915 179.6 L 630.105 179.6 C 628.542 179.631 627.599 181.342 628.407 182.68 C 628.768 183.276 629.409 183.646 630.105 183.66 L 656.915 183.66 C 658.478 183.629 659.421 181.918 658.613 180.58 C 658.252 179.984 657.612 179.614 656.915 179.6 Z" fill="#3f3d56"/>
</svg>