<?xml version="1.0" encoding="utf-8"?>
<svg viewBox="0 0 828.074 500" xmlns="http://www.w3.org/2000/svg">
  <polygon points="106.127 489.029 116.917 489.029 122.05 447.671 106.125 447.672 106.127 489.029" fill="#ffb6b6" style=""/>
  <path d="M 105.747 500.214 L 138.928 500.213 L 138.928 499.796 C 138.927 492.709 133.146 486.963 126.013 486.963 L 126.012 486.963 L 119.951 482.394 L 108.643 486.963 L 105.747 486.964 Z" fill="#2f2e41" style=""/>
  <polygon points="123.552 438.992 132.045 445.603 161.752 416.192 149.215 406.434 123.552 438.992" fill="#ffb6b6" style=""/>
  <path d="M 116.31 447.565 L 142.432 467.896 L 142.69 467.568 C 147.088 461.988 146.102 453.922 140.487 449.551 L 140.487 449.551 L 138.551 442.24 L 126.814 438.908 L 124.533 437.133 Z" fill="#2f2e41" style=""/>
  <path d="M 174.35 250.556 C 174.35 250.556 188.67 265.314 182.306 299.571 L 187.649 358.229 L 189.028 360.945 C 190.714 364.263 190.065 368.283 187.42 370.911 L 187.42 370.911 L 186.284 374.412 L 185.223 381.264 L 145.709 440.292 L 130.594 424.481 L 154.991 369.141 L 148.362 354.912 L 132.98 305.369 L 122.372 396.021 L 124.494 474.023 L 104.191 474.023 L 91.61 387.061 L 78.35 264.787 L 85.248 250.556 Z" fill="#2f2e41" style=""/>
  <path d="M 81.657 275.913 L 81.513 275.711 C 73.785 264.961 85.408 239.126 87.16 235.38 L 87.16 235.38 C 82.868 233.996 80.157 229.792 80.684 225.338 L 81.44 218.955 L 82.228 212.695 L 76.584 207.087 L 76.569 206.947 L 73.321 178.71 L 68.599 159.955 C 64.977 145.519 69.473 130.265 80.36 120.052 L 91.274 118.33 L 104.538 105.63 L 125.929 105.63 L 133.264 112.593 C 146.955 114.979 149.307 114.201 161.068 128.225 L 155.724 171.825 L 154.39 177.824 L 154.394 185.958 L 157.783 189.702 C 160.259 192.436 161.29 196.171 160.564 199.777 L 160.118 201.991 L 160.118 201.991 C 163.614 203.48 166.949 229.935 167.747 233.63 L 168.937 239.149 C 169.955 240.484 176.678 249.392 176.678 251.827 C 176.678 252.192 176.406 252.545 175.823 252.938 C 171.242 256.02 152.978 277.887 141.772 273.43 C 129.834 268.687 82.382 275.802 81.904 275.876 Z" fill="#3f3d56" style=""/>
  <path d="M 78.784 225.213 C 78.784 225.213 84.277 194.363 78.742 182.762 L 56.789 184.32 L 60.13 228.329 L 79.322 277.193 C 78.044 283.761 84.4 289.241 90.763 287.057 C 97.127 284.873 98.724 276.662 93.639 272.279 C 93.592 272.238 93.544 272.197 93.496 272.158 Z" fill="#ffb6b6" style=""/>
  <path d="M 56.789 166.401 L 58.149 151.698 C 59.181 140.522 64.656 130.216 73.361 123.064 L 73.361 123.064 C 78.823 118.609 86.356 117.621 92.795 120.514 L 92.795 120.514 C 101.646 124.564 105.828 134.734 102.364 143.784 C 97.29 157.008 99.122 170.992 89.229 172.697 L 90.303 177.778 L 80.576 209.325 L 52.869 206.136 Z" fill="#3f3d56" style=""/>
  <path d="M 211.103 216.105 C 211.103 216.105 194.446 196.553 182.213 192.774 L 166.033 203.953 L 198.574 226.591 L 246.862 244.446 C 250.323 248.659 259.04 248.686 262.553 244.492 C 266.064 240.299 261.738 235.031 254.765 235.011 C 254.7 235.01 254.635 235.011 254.57 235.012 Z" fill="#ffb6b6" style=""/>
  <path d="M 147.648 180.259 L 139.029 168.232 C 132.478 159.09 129.865 147.729 131.77 136.665 L 131.77 136.665 C 132.989 129.749 138.051 124.117 144.832 122.139 L 144.832 122.139 C 154.199 119.473 164.043 124.473 167.357 133.579 C 172.188 146.892 189.81 168.772 183.428 176.475 L 187.579 179.631 L 193.85 197.385 L 170.752 212.922 Z" fill="#3f3d56" style=""/>
  <circle cx="95.53081" cy="42.58672" r="30.29866" fill="#ffb6b6" style="" transform="matrix(0.784046, 0, 0, 0.779112, 38.890045, 42.708954)"/>
  <path d="M 96.551 92.527 C 96.343 92.347 96.147 92.154 95.945 91.968 C 95.937 91.987 95.936 92.006 95.929 92.026 Z" fill="#2f2e41" style=""/>
  <path d="M 133.258 50.961 C 132.078 49.073 130.443 47.506 128.502 46.404 C 127.174 45.763 125.779 45.272 124.342 44.939 L 120.583 43.92 C 118.657 43.327 116.675 42.931 114.668 42.737 C 108.988 42.458 103.624 45.349 100.761 50.234 C 99.626 52.236 98.715 54.73 96.523 55.462 C 94.755 56.053 92.826 55.22 90.968 55.381 C 88.758 55.7 86.853 57.094 85.892 59.098 C 84.966 61.083 84.51 63.253 84.559 65.441 C 84.412 75.484 88.548 85.121 95.945 91.968 C 96.558 90.362 95.548 88.629 94.75 87.092 C 93.942 85.537 93.443 83.37 94.795 82.251 C 96.301 81.005 98.713 82.213 100.493 81.4 C 101.651 80.74 102.397 79.548 102.482 78.224 C 102.654 76.933 102.474 75.622 102.555 74.322 C 102.896 68.901 107.619 64.796 113.071 65.183 C 117.123 65.471 121.056 68.222 124.956 67.091 C 126.786 66.559 128.348 65.206 130.24 64.979 C 132.337 64.726 134.31 65.902 136.09 67.032 C 137.398 61.515 136.374 55.707 133.258 50.961 Z" fill="#2f2e41" style=""/>
  <path d="M 215.613 486.952 L 209.569 477.299 L 208.361 482.814 C 208.149 483.781 207.937 484.762 207.742 485.737 C 206.024 484.279 204.198 482.932 202.41 481.638 C 196.922 477.68 191.436 473.717 185.953 469.749 L 187.67 479.643 C 188.728 485.737 189.835 491.954 192.453 497.524 C 192.742 498.155 193.056 498.778 193.394 499.386 L 218.906 499.386 C 219.111 498.822 219.254 498.237 219.33 497.641 C 219.336 497.603 219.339 497.563 219.338 497.524 C 219.738 493.745 217.637 490.185 215.613 486.952 Z" fill="#f0f0f0" style=""/>
  <path d="M 789.482 470.81 L 775.497 448.336 L 772.704 461.179 C 772.214 463.428 771.724 465.713 771.271 467.981 C 767.298 464.589 763.072 461.451 758.937 458.44 C 746.24 449.225 733.548 439.998 720.863 430.76 L 724.835 453.796 C 727.284 467.981 729.842 482.455 735.9 495.425 C 736.572 496.894 737.297 498.345 738.077 499.76 L 797.101 499.76 C 797.576 498.446 797.904 497.083 798.08 495.697 C 798.095 495.607 798.101 495.516 798.098 495.425 C 799.024 486.627 794.162 478.338 789.482 470.81 Z" fill="#f0f0f0"/>
  <path d="M 827.941 501.369 L 1.191 501.676 C 0.274 501.674 -0.296 500.68 0.165 499.887 C 0.377 499.522 0.768 499.296 1.191 499.295 L 827.941 498.988 C 828.857 498.99 829.427 499.984 828.967 500.777 C 828.754 501.142 828.364 501.368 827.941 501.369 Z" fill="#cacaca"/>
  <path d="M 259.398 151.297 L 259.398 438.321 C 259.404 445.937 265.577 452.11 273.193 452.116 L 698.533 452.116 C 706.149 452.11 712.321 445.938 712.327 438.321 L 712.327 151.297 C 712.309 143.689 706.141 137.528 698.533 137.518 L 273.193 137.518 C 265.584 137.528 259.416 143.689 259.398 151.297 Z" fill="#3f3d56"/>
  <path d="M 269.376 154.869 L 269.376 434.781 C 269.383 438.85 272.68 442.146 276.749 442.153 L 694.992 442.153 C 699.061 442.146 702.358 438.85 702.365 434.781 L 702.365 154.869 C 702.364 150.795 699.066 147.49 694.992 147.481 L 276.749 147.481 C 272.675 147.49 269.377 150.795 269.376 154.869 Z" fill="#fff"/>
  <path d="M 250.502 494.299 C 252.081 496.278 254.479 497.425 257.011 497.413 L 712.45 497.413 C 717.766 497.406 721.732 492.516 720.642 487.313 L 713.572 453.732 C 712.977 450.949 711.013 448.658 708.354 447.644 C 707.407 447.272 706.398 447.082 705.38 447.083 L 264.053 447.083 C 263.035 447.082 262.026 447.272 261.079 447.644 C 258.42 448.658 256.456 450.949 255.861 453.732 L 248.791 487.313 C 248.282 489.78 248.91 492.346 250.502 494.299 Z" fill="#2f2e41"/>
  <rect x="-702.146" y="-461.547" width="14.027" height="8.416" rx="0.488" transform="matrix(-1, 0, 0, -1, 0, 0)" fill="#3f3d56"/>
  <rect x="-674.091" y="-461.547" width="14.027" height="8.416" rx="0.488" transform="matrix(-1, 0, 0, -1, 0, 0)" fill="#3f3d56"/>
  <rect x="-646.036" y="-461.547" width="14.027" height="8.416" rx="0.488" transform="matrix(-1, 0, 0, -1, 0, 0)" fill="#3f3d56"/>
  <rect x="-617.982" y="-461.547" width="14.027" height="8.416" rx="0.488" transform="matrix(-1, 0, 0, -1, 0, 0)" fill="#3f3d56"/>
  <rect x="-589.927" y="-461.547" width="14.027" height="8.416" rx="0.488" transform="matrix(-1, 0, 0, -1, 0, 0)" fill="#3f3d56"/>
  <rect x="-561.872" y="-461.547" width="14.027" height="8.416" rx="0.488" transform="matrix(-1, 0, 0, -1, 0, 0)" fill="#3f3d56"/>
  <rect x="-533.818" y="-461.547" width="14.027" height="8.416" rx="0.488" transform="matrix(-1, 0, 0, -1, 0, 0)" fill="#3f3d56"/>
  <rect x="-505.763" y="-461.547" width="14.027" height="8.416" rx="0.488" transform="matrix(-1, 0, 0, -1, 0, 0)" fill="#3f3d56"/>
  <rect x="-477.708" y="-461.547" width="14.027" height="8.416" rx="0.488" transform="matrix(-1, 0, 0, -1, 0, 0)" fill="#3f3d56"/>
  <rect x="-449.654" y="-461.547" width="14.027" height="8.416" rx="0.488" transform="matrix(-1, 0, 0, -1, 0, 0)" fill="#3f3d56"/>
  <rect x="-421.599" y="-461.547" width="14.027" height="8.416" rx="0.488" transform="matrix(-1, 0, 0, -1, 0, 0)" fill="#3f3d56"/>
  <rect x="-393.545" y="-461.547" width="14.027" height="8.416" rx="0.488" transform="matrix(-1, 0, 0, -1, 0, 0)" fill="#3f3d56"/>
  <rect x="-365.49" y="-461.547" width="14.027" height="8.416" rx="0.488" transform="matrix(-1, 0, 0, -1, 0, 0)" fill="#3f3d56"/>
  <rect x="-337.435" y="-461.547" width="14.027" height="8.416" rx="0.488" transform="matrix(-1, 0, 0, -1, 0, 0)" fill="#3f3d56"/>
  <rect x="-309.381" y="-461.547" width="14.027" height="8.416" rx="0.488" transform="matrix(-1, 0, 0, -1, 0, 0)" fill="#3f3d56"/>
  <rect x="-281.326" y="-461.547" width="14.027" height="8.416" rx="0.488" transform="matrix(-1, 0, 0, -1, 0, 0)" fill="#3f3d56"/>
  <rect x="-702.477" y="-475.574" width="14.027" height="8.416" rx="0.488" transform="matrix(-1, 0, 0, -1, 0, 0)" fill="#3f3d56"/>
  <rect x="-674.422" y="-475.574" width="14.027" height="8.416" rx="0.488" transform="matrix(-1, 0, 0, -1, 0, 0)" fill="#3f3d56"/>
  <rect x="-646.368" y="-475.574" width="14.027" height="8.416" rx="0.488" transform="matrix(-1, 0, 0, -1, 0, 0)" fill="#3f3d56"/>
  <rect x="-618.313" y="-475.574" width="14.027" height="8.416" rx="0.488" transform="matrix(-1, 0, 0, -1, 0, 0)" fill="#3f3d56"/>
  <rect x="-590.259" y="-475.574" width="14.027" height="8.416" rx="0.488" transform="matrix(-1, 0, 0, -1, 0, 0)" fill="#3f3d56"/>
  <rect x="-562.204" y="-475.574" width="14.027" height="8.416" rx="0.488" transform="matrix(-1, 0, 0, -1, 0, 0)" fill="#3f3d56"/>
  <rect x="-534.149" y="-475.574" width="14.027" height="8.416" rx="0.488" transform="matrix(-1, 0, 0, -1, 0, 0)" fill="#3f3d56"/>
  <rect x="-506.095" y="-475.574" width="14.027" height="8.416" rx="0.488" transform="matrix(-1, 0, 0, -1, 0, 0)" fill="#3f3d56"/>
  <rect x="-478.04" y="-475.574" width="14.027" height="8.416" rx="0.488" transform="matrix(-1, 0, 0, -1, 0, 0)" fill="#3f3d56"/>
  <rect x="-449.985" y="-475.574" width="14.027" height="8.416" rx="0.488" transform="matrix(-1, 0, 0, -1, 0, 0)" fill="#3f3d56"/>
  <rect x="-421.931" y="-475.574" width="14.027" height="8.416" rx="0.488" transform="matrix(-1, 0, 0, -1, 0, 0)" fill="#3f3d56"/>
  <rect x="-393.876" y="-475.574" width="14.027" height="8.416" rx="0.488" transform="matrix(-1, 0, 0, -1, 0, 0)" fill="#3f3d56"/>
  <rect x="-365.821" y="-475.574" width="14.027" height="8.416" rx="0.488" transform="matrix(-1, 0, 0, -1, 0, 0)" fill="#3f3d56"/>
  <rect x="-337.767" y="-475.574" width="14.027" height="8.416" rx="0.488" transform="matrix(-1, 0, 0, -1, 0, 0)" fill="#3f3d56"/>
  <rect x="-309.712" y="-475.574" width="14.027" height="8.416" rx="0.488" transform="matrix(-1, 0, 0, -1, 0, 0)" fill="#3f3d56"/>
  <rect x="-281.657" y="-475.574" width="14.027" height="8.416" rx="0.488" transform="matrix(-1, 0, 0, -1, 0, 0)" fill="#3f3d56"/>
  <rect x="-536.815" y="-492.407" width="112.219" height="8.416" rx="0.488" transform="matrix(-1, 0, 0, -1, 0, 0)" fill="#3f3d56"/>
  <path d="M 472.311 276.99 L 472.326 276.987 C 472.43 276.893 472.526 276.791 472.613 276.681 Z" fill="#28273b"/>
  <path d="M 512.281 353.541 L 512.286 353.55 L 512.374 353.381 Z" fill="#28273b"/>
  <path d="M 679.532 198.154 L 292.209 198.154 C 291.427 198.137 290.957 197.28 291.363 196.612 C 291.543 196.315 291.862 196.131 292.209 196.124 L 679.532 196.124 C 680.314 196.141 680.784 196.998 680.378 197.666 C 680.198 197.963 679.879 198.147 679.532 198.154 Z" fill="#cacaca"/>
  <ellipse cx="314.564" cy="172.771" rx="10.925" ry="11.169" fill="#3f3d56"/>
  <ellipse cx="352.306" cy="172.771" rx="10.925" ry="11.169" fill="#3f3d56"/>
  <ellipse cx="390.048" cy="172.771" rx="10.925" ry="11.169" fill="#3f3d56"/>
  <path d="M 656.915 164.37 L 630.105 164.37 C 628.542 164.401 627.599 166.112 628.407 167.45 C 628.768 168.046 629.409 168.416 630.105 168.43 L 656.915 168.43 C 658.478 168.399 659.421 166.688 658.613 165.35 C 658.252 164.754 657.612 164.384 656.915 164.37 Z" fill="#3f3d56"/>
  <path d="M 656.915 171.99 L 630.105 171.99 C 628.542 172.021 627.599 173.732 628.407 175.07 C 628.768 175.666 629.409 176.036 630.105 176.05 L 656.915 176.05 C 658.478 176.019 659.421 174.308 658.613 172.97 C 658.252 172.374 657.612 172.004 656.915 171.99 Z" fill="#3f3d56"/>
  <path d="M 656.915 179.6 L 630.105 179.6 C 628.542 179.631 627.599 181.342 628.407 182.68 C 628.768 183.276 629.409 183.646 630.105 183.66 L 656.915 183.66 C 658.478 183.629 659.421 181.918 658.613 180.58 C 658.252 179.984 657.612 179.614 656.915 179.6 Z" fill="#3f3d56"/>
</svg>